<svg width="2500" height="2500" viewBox="0 0 2500 2500" fill="none" xmlns="http://www.w3.org/2000/svg">
<path d="M833.667 2500C1063.67 2500 1250.33 2313.33 1250.33 2083.33V1666.67H833.667C603.667 1666.67 417 1853.33 417 2083.33C417 2313.33 603.667 2500 833.667 2500Z" fill="#0ACF83"/>
<path d="M417 1250C417 1020 603.667 833.333 833.667 833.333H1250.33V1666.67H833.667C603.667 1666.67 417 1480 417 1250Z" fill="#A259FF"/>
<path d="M417 416.667C417 186.667 603.667 0 833.667 0H1250.33V833.333H833.667C603.667 833.333 417 646.667 417 416.667Z" fill="#F24E1E"/>
<path d="M1250.33 0H1667C1897 0 2083.67 186.667 2083.67 416.667C2083.67 646.667 1897 833.333 1667 833.333H1250.33V0Z" fill="#FF7262"/>
<path d="M2083.67 1250C2083.67 1480 1897 1666.67 1667 1666.67C1437 1666.67 1250.33 1480 1250.33 1250C1250.33 1020 1437 833.333 1667 833.333C1897 833.333 2083.67 1020 2083.67 1250Z" fill="#1ABCFE"/>
</svg>
